<mxfile host="app.diagrams.net" modified="2023-08-03T05:04:17.273Z" agent="Mozilla/5.0 (Windows NT 10.0; Win64; x64) AppleWebKit/537.36 (KHTML, like Gecko) Chrome/115.0.0.0 Safari/537.36" etag="FU4qgEV-lzc6SEpE45JG" version="21.6.6" type="github">
  <diagram name="Page-1" id="TMEfMzALF7SQPJckPJgQ">
    <mxGraphModel dx="880" dy="446" grid="1" gridSize="10" guides="1" tooltips="1" connect="1" arrows="1" fold="1" page="1" pageScale="1" pageWidth="850" pageHeight="1100" math="0" shadow="0">
      <root>
        <mxCell id="0" />
        <mxCell id="1" parent="0" />
        <mxCell id="mJ7Y3IeRI2I12OfNmQy5-1" value="" style="rounded=0;whiteSpace=wrap;html=1;fillColor=#dae8fc;strokeColor=#6c8ebf;" parent="1" vertex="1">
          <mxGeometry x="30" y="235" width="730" height="505" as="geometry" />
        </mxCell>
        <mxCell id="mJ7Y3IeRI2I12OfNmQy5-2" value="" style="rounded=0;whiteSpace=wrap;html=1;" parent="1" vertex="1">
          <mxGeometry x="550" y="280" width="190" height="450" as="geometry" />
        </mxCell>
        <mxCell id="mJ7Y3IeRI2I12OfNmQy5-3" value="" style="rounded=1;whiteSpace=wrap;html=1;align=center;labelPosition=center;verticalLabelPosition=top;verticalAlign=bottom;" parent="1" vertex="1">
          <mxGeometry x="560" y="535" width="169" height="185" as="geometry" />
        </mxCell>
        <mxCell id="mJ7Y3IeRI2I12OfNmQy5-4" value="" style="rounded=0;whiteSpace=wrap;html=1;fillColor=#B9E0A5;strokeColor=#82b366;" parent="1" vertex="1">
          <mxGeometry x="780" y="328" width="149" height="190" as="geometry" />
        </mxCell>
        <mxCell id="mJ7Y3IeRI2I12OfNmQy5-5" value="" style="rounded=0;whiteSpace=wrap;html=1;fillColor=#fff2cc;strokeColor=#d6b656;" parent="1" vertex="1">
          <mxGeometry x="781.5" y="236" width="148.5" height="80" as="geometry" />
        </mxCell>
        <mxCell id="mJ7Y3IeRI2I12OfNmQy5-6" value="" style="rounded=0;whiteSpace=wrap;html=1;fillColor=#f8cecc;strokeColor=#b85450;" parent="1" vertex="1">
          <mxGeometry x="30" y="130" width="730" height="90" as="geometry" />
        </mxCell>
        <mxCell id="mJ7Y3IeRI2I12OfNmQy5-7" value="" style="rounded=0;whiteSpace=wrap;html=1;" parent="1" vertex="1">
          <mxGeometry x="267" y="280" width="130" height="140" as="geometry" />
        </mxCell>
        <mxCell id="mJ7Y3IeRI2I12OfNmQy5-8" value="" style="rounded=0;whiteSpace=wrap;html=1;" parent="1" vertex="1">
          <mxGeometry x="267" y="435" width="130" height="295" as="geometry" />
        </mxCell>
        <mxCell id="mJ7Y3IeRI2I12OfNmQy5-9" value="" style="rounded=0;whiteSpace=wrap;html=1;" parent="1" vertex="1">
          <mxGeometry x="410" y="280" width="130" height="450" as="geometry" />
        </mxCell>
        <mxCell id="mJ7Y3IeRI2I12OfNmQy5-10" value="&lt;font style=&quot;font-size: 16px;&quot;&gt;&lt;b&gt;Mobile Registration App (ODK)&lt;/b&gt;&lt;/font&gt;" style="rounded=1;whiteSpace=wrap;html=1;" parent="1" vertex="1">
          <mxGeometry x="49" y="161" width="250" height="40" as="geometry" />
        </mxCell>
        <object label="Super Administrator" id="mJ7Y3IeRI2I12OfNmQy5-11">
          <mxCell style="shape=umlActor;verticalLabelPosition=bottom;verticalAlign=top;html=1;outlineConnect=0;" parent="1" vertex="1">
            <mxGeometry x="469" y="40" width="30" height="60" as="geometry" />
          </mxCell>
        </object>
        <mxCell id="mJ7Y3IeRI2I12OfNmQy5-12" value="Program&amp;nbsp; Administrator" style="shape=umlActor;verticalLabelPosition=bottom;verticalAlign=top;html=1;outlineConnect=0;" parent="1" vertex="1">
          <mxGeometry x="650" y="40" width="30" height="60" as="geometry" />
        </mxCell>
        <mxCell id="mJ7Y3IeRI2I12OfNmQy5-13" value="Field Registration Officer&lt;br&gt;" style="shape=umlActor;verticalLabelPosition=bottom;verticalAlign=top;html=1;outlineConnect=0;" parent="1" vertex="1">
          <mxGeometry x="118" y="40" width="30" height="60" as="geometry" />
        </mxCell>
        <mxCell id="mJ7Y3IeRI2I12OfNmQy5-14" value="Individual/Group&lt;br&gt;" style="shape=umlActor;verticalLabelPosition=bottom;verticalAlign=top;html=1;outlineConnect=0;" parent="1" vertex="1">
          <mxGeometry x="285.34000000000003" y="40" width="30" height="60" as="geometry" />
        </mxCell>
        <mxCell id="mJ7Y3IeRI2I12OfNmQy5-15" value="&lt;font style=&quot;font-size: 16px;&quot;&gt;&lt;b&gt;Registry&lt;/b&gt;&lt;/font&gt;" style="shape=cylinder3;whiteSpace=wrap;html=1;boundedLbl=1;backgroundOutline=1;size=15;" parent="1" vertex="1">
          <mxGeometry x="283.5" y="579" width="97" height="131" as="geometry" />
        </mxCell>
        <mxCell id="mJ7Y3IeRI2I12OfNmQy5-17" value="Privacy and Security&lt;br style=&quot;font-size: 16px;&quot;&gt;" style="rounded=0;whiteSpace=wrap;html=1;rotation=-90;fontSize=16;fontStyle=1" parent="1" vertex="1">
          <mxGeometry x="1.5" y="477" width="450" height="55" as="geometry" />
        </mxCell>
        <mxCell id="mJ7Y3IeRI2I12OfNmQy5-18" value="Monitoring and Reporting" style="rounded=0;whiteSpace=wrap;html=1;rotation=-90;fontSize=16;fontStyle=1" parent="1" vertex="1">
          <mxGeometry x="-70" y="476.5" width="450" height="55" as="geometry" />
        </mxCell>
        <mxCell id="mJ7Y3IeRI2I12OfNmQy5-19" value="&lt;font style=&quot;font-size: 16px;&quot;&gt;&lt;b&gt;Self Service Portal&lt;/b&gt;&lt;/font&gt;" style="rounded=1;whiteSpace=wrap;html=1;" parent="1" vertex="1">
          <mxGeometry x="323" y="161" width="151.65" height="40" as="geometry" />
        </mxCell>
        <mxCell id="mJ7Y3IeRI2I12OfNmQy5-20" value="&lt;font style=&quot;font-size: 16px;&quot;&gt;&lt;b&gt;OpenG2P Backend Application&lt;/b&gt;&lt;/font&gt;" style="rounded=1;whiteSpace=wrap;html=1;" parent="1" vertex="1">
          <mxGeometry x="500" y="161" width="240" height="40" as="geometry" />
        </mxCell>
        <mxCell id="mJ7Y3IeRI2I12OfNmQy5-21" value="Deduplication&amp;nbsp;" style="rounded=1;whiteSpace=wrap;html=1;" parent="1" vertex="1">
          <mxGeometry x="425" y="527.25" width="100" height="40" as="geometry" />
        </mxCell>
        <mxCell id="mJ7Y3IeRI2I12OfNmQy5-22" value="Program Cycles&amp;nbsp;" style="rounded=1;whiteSpace=wrap;html=1;" parent="1" vertex="1">
          <mxGeometry x="425" y="680" width="100" height="40" as="geometry" />
        </mxCell>
        <mxCell id="mJ7Y3IeRI2I12OfNmQy5-23" value="Entitlement" style="rounded=1;whiteSpace=wrap;html=1;" parent="1" vertex="1">
          <mxGeometry x="425" y="579" width="100" height="40" as="geometry" />
        </mxCell>
        <mxCell id="mJ7Y3IeRI2I12OfNmQy5-24" value="Entitlement Voucher" style="rounded=1;whiteSpace=wrap;html=1;" parent="1" vertex="1">
          <mxGeometry x="425" y="630" width="100" height="40" as="geometry" />
        </mxCell>
        <mxCell id="mJ7Y3IeRI2I12OfNmQy5-25" value="Access Control" style="rounded=1;whiteSpace=wrap;html=1;" parent="1" vertex="1">
          <mxGeometry x="288" y="324.65000000000003" width="90" height="30" as="geometry" />
        </mxCell>
        <mxCell id="mJ7Y3IeRI2I12OfNmQy5-26" value="Payment Cycles&amp;nbsp;" style="rounded=1;whiteSpace=wrap;html=1;" parent="1" vertex="1">
          <mxGeometry x="561" y="324.65" width="100" height="40" as="geometry" />
        </mxCell>
        <mxCell id="mJ7Y3IeRI2I12OfNmQy5-27" value="Payment Batches&amp;nbsp;" style="rounded=1;whiteSpace=wrap;html=1;" parent="1" vertex="1">
          <mxGeometry x="561" y="376.25" width="100" height="40" as="geometry" />
        </mxCell>
        <mxCell id="mJ7Y3IeRI2I12OfNmQy5-28" value="Accounting" style="rounded=1;whiteSpace=wrap;html=1;" parent="1" vertex="1">
          <mxGeometry x="570" y="567" width="150" height="40" as="geometry" />
        </mxCell>
        <mxCell id="mJ7Y3IeRI2I12OfNmQy5-29" value="Reconciliation" style="rounded=1;whiteSpace=wrap;html=1;" parent="1" vertex="1">
          <mxGeometry x="570" y="617" width="150" height="40" as="geometry" />
        </mxCell>
        <mxCell id="mJ7Y3IeRI2I12OfNmQy5-30" value="Reports&amp;nbsp;" style="rounded=1;whiteSpace=wrap;html=1;" parent="1" vertex="1">
          <mxGeometry x="570" y="666" width="150" height="40" as="geometry" />
        </mxCell>
        <mxCell id="mJ7Y3IeRI2I12OfNmQy5-31" value="&lt;b&gt;&lt;font style=&quot;font-size: 14px;&quot;&gt;Mojaloop&lt;/font&gt;&lt;/b&gt;" style="rounded=1;whiteSpace=wrap;html=1;" parent="1" vertex="1">
          <mxGeometry x="792" y="361" width="121" height="40" as="geometry" />
        </mxCell>
        <mxCell id="mJ7Y3IeRI2I12OfNmQy5-32" value="Settings" style="rounded=1;whiteSpace=wrap;html=1;" parent="1" vertex="1">
          <mxGeometry x="287" y="371" width="90" height="30" as="geometry" />
        </mxCell>
        <mxCell id="mJ7Y3IeRI2I12OfNmQy5-33" value="" style="rounded=1;whiteSpace=wrap;html=1;align=center;labelPosition=center;verticalLabelPosition=top;verticalAlign=bottom;" parent="1" vertex="1">
          <mxGeometry x="425" y="330" width="100" height="130" as="geometry" />
        </mxCell>
        <mxCell id="mJ7Y3IeRI2I12OfNmQy5-34" value="ODK Connector" style="rounded=1;whiteSpace=wrap;html=1;" parent="1" vertex="1">
          <mxGeometry x="277" y="529.5" width="110" height="30" as="geometry" />
        </mxCell>
        <mxCell id="mJ7Y3IeRI2I12OfNmQy5-35" value="&lt;b&gt;&lt;font style=&quot;font-size: 14px;&quot;&gt;MOSIP&amp;nbsp;&lt;/font&gt;&lt;/b&gt;" style="rounded=1;whiteSpace=wrap;html=1;" parent="1" vertex="1">
          <mxGeometry x="792" y="265" width="128" height="40" as="geometry" />
        </mxCell>
        <mxCell id="mJ7Y3IeRI2I12OfNmQy5-36" value="&lt;b&gt;&lt;font style=&quot;font-size: 14px;&quot;&gt;Mifos Payment Hub&lt;/font&gt;&lt;/b&gt;" style="rounded=1;whiteSpace=wrap;html=1;" parent="1" vertex="1">
          <mxGeometry x="792" y="410" width="120" height="40" as="geometry" />
        </mxCell>
        <mxCell id="mJ7Y3IeRI2I12OfNmQy5-37" value="&lt;b&gt;&lt;font style=&quot;font-size: 14px;&quot;&gt;GSMA Mobile Money&lt;/font&gt;&lt;/b&gt;" style="rounded=1;whiteSpace=wrap;html=1;" parent="1" vertex="1">
          <mxGeometry x="792" y="460" width="120" height="45" as="geometry" />
        </mxCell>
        <mxCell id="mJ7Y3IeRI2I12OfNmQy5-38" value="&lt;b&gt;&lt;font color=&quot;#ff3333&quot; style=&quot;font-size: 17px;&quot;&gt;User Layer&lt;/font&gt;&lt;/b&gt;" style="text;html=1;align=center;verticalAlign=middle;whiteSpace=wrap;rounded=0;fontColor=#66FFB3;" parent="1" vertex="1">
          <mxGeometry x="652" y="130" width="108" height="30" as="geometry" />
        </mxCell>
        <mxCell id="mJ7Y3IeRI2I12OfNmQy5-39" value="Registration" style="text;html=1;strokeColor=none;fillColor=none;align=center;verticalAlign=middle;whiteSpace=wrap;rounded=0;fontStyle=1;fontSize=16;" parent="1" vertex="1">
          <mxGeometry x="299" y="437" width="60" height="30" as="geometry" />
        </mxCell>
        <mxCell id="mJ7Y3IeRI2I12OfNmQy5-40" value="Program Management" style="text;html=1;strokeColor=none;fillColor=none;align=center;verticalAlign=middle;whiteSpace=wrap;rounded=0;fontSize=16;fontStyle=1" parent="1" vertex="1">
          <mxGeometry x="445" y="287.16999999999996" width="60" height="30" as="geometry" />
        </mxCell>
        <mxCell id="mJ7Y3IeRI2I12OfNmQy5-41" value="Enrollment" style="rounded=1;whiteSpace=wrap;html=1;" parent="1" vertex="1">
          <mxGeometry x="425" y="474.65" width="100" height="40" as="geometry" />
        </mxCell>
        <mxCell id="mJ7Y3IeRI2I12OfNmQy5-42" value="Payment Management" style="text;html=1;strokeColor=none;fillColor=none;align=center;verticalAlign=middle;whiteSpace=wrap;rounded=0;fontSize=16;fontStyle=1" parent="1" vertex="1">
          <mxGeometry x="595.5" y="287.17" width="99" height="30" as="geometry" />
        </mxCell>
        <mxCell id="mJ7Y3IeRI2I12OfNmQy5-43" value="&lt;b&gt;&lt;font color=&quot;#000099&quot; style=&quot;font-size: 17px;&quot;&gt;Application Layer&lt;/font&gt;&lt;/b&gt;" style="text;html=1;align=center;verticalAlign=middle;whiteSpace=wrap;rounded=0;fontColor=#66FFB3;" parent="1" vertex="1">
          <mxGeometry x="599" y="238" width="161" height="30" as="geometry" />
        </mxCell>
        <mxCell id="mJ7Y3IeRI2I12OfNmQy5-44" value="Administration" style="text;html=1;strokeColor=none;fillColor=none;align=center;verticalAlign=middle;whiteSpace=wrap;rounded=0;fontSize=16;fontStyle=1" parent="1" vertex="1">
          <mxGeometry x="302" y="287.99999999999994" width="60" height="30" as="geometry" />
        </mxCell>
        <mxCell id="mJ7Y3IeRI2I12OfNmQy5-45" value="&lt;b&gt;&lt;font color=&quot;#000000&quot; style=&quot;font-size: 17px;&quot;&gt;ID Systems&lt;/font&gt;&lt;/b&gt;" style="text;html=1;align=center;verticalAlign=middle;whiteSpace=wrap;rounded=0;fontColor=#66FFB3;" parent="1" vertex="1">
          <mxGeometry x="781.5" y="240" width="161" height="21.17" as="geometry" />
        </mxCell>
        <mxCell id="mJ7Y3IeRI2I12OfNmQy5-46" value="&lt;b&gt;&lt;font color=&quot;#000000&quot; style=&quot;font-size: 17px;&quot;&gt;Payment Systems&lt;/font&gt;&lt;/b&gt;" style="text;html=1;align=center;verticalAlign=middle;whiteSpace=wrap;rounded=0;fontColor=#66FFB3;" parent="1" vertex="1">
          <mxGeometry x="775" y="330.82000000000005" width="161" height="30" as="geometry" />
        </mxCell>
        <mxCell id="mJ7Y3IeRI2I12OfNmQy5-47" value="&lt;b&gt;&lt;font color=&quot;#000000&quot; style=&quot;font-size: 17px;&quot;&gt;Integrations&lt;/font&gt;&lt;/b&gt;" style="text;html=1;align=center;verticalAlign=middle;whiteSpace=wrap;rounded=0;fontColor=#66FFB3;" parent="1" vertex="1">
          <mxGeometry x="775" y="190.00000000000006" width="161" height="30" as="geometry" />
        </mxCell>
        <mxCell id="mJ7Y3IeRI2I12OfNmQy5-52" value="Proxy Means Test" style="rounded=1;whiteSpace=wrap;html=1;" parent="1" vertex="1">
          <mxGeometry x="434" y="408" width="80" height="40" as="geometry" />
        </mxCell>
        <mxCell id="mJ7Y3IeRI2I12OfNmQy5-53" value="Cash Payments" style="rounded=1;whiteSpace=wrap;html=1;" parent="1" vertex="1">
          <mxGeometry x="561" y="427" width="100" height="40" as="geometry" />
        </mxCell>
        <mxCell id="mJ7Y3IeRI2I12OfNmQy5-54" value="Voucher Reimbursements" style="rounded=1;whiteSpace=wrap;html=1;" parent="1" vertex="1">
          <mxGeometry x="560" y="481.11" width="100" height="40" as="geometry" />
        </mxCell>
        <mxCell id="mJ7Y3IeRI2I12OfNmQy5-56" value="Rule Based" style="rounded=1;whiteSpace=wrap;html=1;" parent="1" vertex="1">
          <mxGeometry x="436" y="368" width="77" height="30" as="geometry" />
        </mxCell>
        <mxCell id="mJ7Y3IeRI2I12OfNmQy5-57" value="&lt;font style=&quot;font-size: 14px;&quot;&gt;Eligibility Assessment&lt;/font&gt;" style="text;html=1;strokeColor=none;fillColor=none;align=center;verticalAlign=middle;whiteSpace=wrap;rounded=0;" parent="1" vertex="1">
          <mxGeometry x="442" y="335" width="60" height="30" as="geometry" />
        </mxCell>
        <mxCell id="mJ7Y3IeRI2I12OfNmQy5-58" style="edgeStyle=orthogonalEdgeStyle;rounded=0;orthogonalLoop=1;jettySize=auto;html=1;exitX=0.5;exitY=1;exitDx=0;exitDy=0;entryX=0;entryY=0.5;entryDx=0;entryDy=0;" parent="1" source="mJ7Y3IeRI2I12OfNmQy5-59" target="mJ7Y3IeRI2I12OfNmQy5-4" edge="1">
          <mxGeometry relative="1" as="geometry" />
        </mxCell>
        <mxCell id="mJ7Y3IeRI2I12OfNmQy5-59" value="&lt;font style=&quot;font-size: 16px;&quot;&gt;Payment Connectors&lt;/font&gt;" style="rounded=0;whiteSpace=wrap;html=1;rotation=-90;fontSize=16;fontStyle=1" parent="1" vertex="1">
          <mxGeometry x="599.29" y="397.11" width="198" height="52" as="geometry" />
        </mxCell>
        <mxCell id="mJ7Y3IeRI2I12OfNmQy5-60" value="Documents" style="rounded=1;whiteSpace=wrap;html=1;" parent="1" vertex="1">
          <mxGeometry x="277" y="481.11" width="110" height="30" as="geometry" />
        </mxCell>
        <mxCell id="mJ7Y3IeRI2I12OfNmQy5-61" value="&lt;font style=&quot;font-size: 14px;&quot;&gt;Accounting&lt;/font&gt;" style="text;html=1;strokeColor=none;fillColor=none;align=center;verticalAlign=middle;whiteSpace=wrap;rounded=0;" parent="1" vertex="1">
          <mxGeometry x="610" y="536" width="60" height="30" as="geometry" />
        </mxCell>
        <mxCell id="mJ7Y3IeRI2I12OfNmQy5-62" value="Notifications" style="rounded=0;whiteSpace=wrap;html=1;rotation=-90;fontSize=16;fontStyle=1" parent="1" vertex="1">
          <mxGeometry x="-143" y="477.5" width="450" height="55" as="geometry" />
        </mxCell>
      </root>
    </mxGraphModel>
  </diagram>
</mxfile>
